<?xml version="1.0" standalone="no"?>
<!DOCTYPE svg PUBLIC "-//W3C//DTD SVG 20010904//EN"
 "http://www.w3.org/TR/2001/REC-SVG-20010904/DTD/svg10.dtd">
<svg version="1.0" xmlns="http://www.w3.org/2000/svg"
 width="260.000000pt" height="260.000000pt" viewBox="0 0 260.000000 260.000000"
 preserveAspectRatio="xMidYMid meet">
<metadata>
Created by potrace 1.11, written by Peter Selinger 2001-2013
</metadata>
<g transform="translate(0.000000,260.000000) scale(0.100000,-0.100000)"
fill="#000000" stroke="none">
<path d="M2425 2444 c-82 -25 -157 -46 -166 -48 -15 -4 -261 -74 -289 -83 -10
-3 9 -28 63 -80 43 -42 76 -80 75 -84 -2 -4 -82 -89 -178 -189 -200 -208 -241
-251 -438 -458 l-144 -150 -26 28 c-307 320 -433 445 -459 456 -37 16 -84 9
-110 -15 -17 -16 -272 -284 -372 -390 -24 -25 -111 -117 -194 -204 -174 -182
-179 -188 -184 -234 -7 -63 58 -129 116 -118 49 9 63 20 184 148 69 73 153
161 187 197 34 36 123 130 198 208 l136 144 110 -114 c228 -237 339 -349 359
-363 27 -19 70 -19 105 -1 15 8 97 87 182 177 85 89 178 185 205 214 380 394
471 488 473 496 8 20 30 6 104 -65 l76 -74 57 227 c31 124 58 233 60 241 17
73 36 152 41 164 8 22 0 21 -171 -30z"/>
<path d="M2186 1684 l-90 -95 0 -744 -1 -744 78 2 c43 2 81 -1 84 -6 2 -4 12
-2 21 5 13 11 14 11 8 0 -7 -11 -4 -12 12 -3 26 14 35 14 26 0 -4 -7 2 -6 17
1 16 9 24 10 27 2 2 -8 11 -8 30 -1 15 6 29 9 31 7 3 -2 5 341 5 762 l1 765
-73 73 c-41 39 -77 72 -80 72 -4 0 -47 -43 -96 -96z"/>
<path d="M1918 1407 c-53 -56 -128 -134 -165 -173 l-68 -71 0 -526 c0 -577 -4
-540 58 -533 15 2 30 -1 33 -6 3 -5 13 -3 22 4 13 11 14 11 8 0 -7 -11 -4 -12
12 -3 26 14 35 14 26 0 -4 -7 2 -6 17 1 16 9 24 10 27 2 2 -7 12 -8 25 -4 12
4 36 7 52 6 65 -5 60 -63 59 701 -1 383 -3 698 -5 700 -2 2 -48 -42 -101 -98z"/>
<path d="M624 1144 c-88 -91 -162 -171 -166 -178 -4 -6 -8 -203 -8 -438 l0
-428 61 3 c33 2 63 -1 65 -5 3 -5 13 -3 22 4 13 11 14 11 8 0 -7 -11 -4 -12
12 -3 26 14 35 14 26 0 -4 -7 2 -6 17 1 17 10 24 10 27 1 2 -6 7 -9 12 -6 17
11 70 12 70 2 0 -6 3 -7 8 -3 6 6 13 1216 7 1216 -2 0 -74 -75 -161 -166z"/>
<path d="M861 713 c0 -394 4 -602 11 -610 8 -10 15 -10 31 -1 16 8 22 8 25 -1
2 -6 8 -9 13 -5 15 9 110 11 116 2 2 -5 12 -3 21 4 13 11 14 11 8 0 -7 -11 -4
-12 12 -3 26 14 35 14 26 0 -4 -7 1 -7 16 1 18 10 24 9 31 -1 7 -11 9 -11 9
-1 0 7 4 11 9 8 4 -3 8 189 8 432 l1 437 -67 66 c-36 36 -106 107 -154 156
-48 50 -94 96 -102 103 -12 10 -14 -72 -14 -587z"/>
<path d="M1555 1029 c-70 -71 -130 -99 -215 -96 l-66 3 0 -411 c0 -427 2 -444
41 -423 13 8 16 8 10 -2 -6 -9 -3 -9 13 -1 26 14 35 14 26 0 -4 -7 2 -6 17 1
17 10 24 10 27 1 2 -6 8 -9 13 -5 15 9 110 11 116 2 2 -5 12 -3 21 4 13 11 14
11 8 0 -7 -11 -4 -12 11 -3 11 6 23 7 27 4 3 -3 6 215 6 485 0 271 -1 492 -3
492 -1 0 -25 -23 -52 -51z"/>
<path d="M315 820 c-68 -69 -123 -94 -207 -93 -38 1 -68 -2 -69 -5 0 -4 -1
-144 -2 -312 l0 -305 26 0 c14 -1 29 -4 33 -8 4 -4 14 -1 22 6 13 10 14 9 8
-1 -7 -11 -4 -12 12 -3 26 14 35 14 26 0 -4 -7 2 -6 17 1 16 9 24 10 27 2 2
-7 12 -8 25 -4 27 9 88 9 102 0 6 -3 17 -1 25 5 13 10 15 67 15 390 0 207 -2
377 -5 377 -3 0 -28 -22 -55 -50z"/>
</g>
</svg>
